<svg xmlns="http://www.w3.org/2000/svg" viewBox="0 0 1200 800" width="1200" height="800">
  <defs>
    <linearGradient id="sky" x1="0" y1="0" x2="0" y2="1">
      <stop offset="0%" stop-color="#040d20"/>
      <stop offset="55%" stop-color="#0c1c40"/>
      <stop offset="100%" stop-color="#1a3060"/>
    </linearGradient>
    <linearGradient id="bldg" x1="0" y1="0" x2="0" y2="1">
      <stop offset="0%" stop-color="#1e2d5a"/>
      <stop offset="100%" stop-color="#080e22"/>
    </linearGradient>
    <linearGradient id="bldgDk" x1="0" y1="0" x2="0" y2="1">
      <stop offset="0%" stop-color="#0f1830"/>
      <stop offset="100%" stop-color="#040a18"/>
    </linearGradient>
    <linearGradient id="ground" x1="0" y1="0" x2="0" y2="1">
      <stop offset="0%" stop-color="#0a1228"/>
      <stop offset="100%" stop-color="#020408"/>
    </linearGradient>
    <radialGradient id="moonHalo" cx="50%" cy="50%" r="50%">
      <stop offset="0%" stop-color="#8ab4f8" stop-opacity="0.4"/>
      <stop offset="100%" stop-color="#8ab4f8" stop-opacity="0"/>
    </radialGradient>
    <radialGradient id="cityGlow" cx="50%" cy="0%" r="100%">
      <stop offset="0%" stop-color="#1a3fbb" stop-opacity="0.3"/>
      <stop offset="100%" stop-color="#1a3fbb" stop-opacity="0"/>
    </radialGradient>
  </defs>

  <!-- SKY -->
  <rect width="1200" height="800" fill="url(#sky)"/>

  <!-- STARS -->
  <g fill="white">
    <circle cx="50"   cy="45"  r="1.2" opacity="0.7"/>
    <circle cx="130"  cy="72"  r="1.5" opacity="0.8"/>
    <circle cx="210"  cy="38"  r="1"   opacity="0.6"/>
    <circle cx="315"  cy="82"  r="1.2" opacity="0.75"/>
    <circle cx="425"  cy="52"  r="1"   opacity="0.65"/>
    <circle cx="510"  cy="92"  r="1.5" opacity="0.8"/>
    <circle cx="595"  cy="62"  r="1.2" opacity="0.7"/>
    <circle cx="678"  cy="32"  r="1"   opacity="0.6"/>
    <circle cx="775"  cy="78"  r="1.5" opacity="0.8"/>
    <circle cx="880"  cy="48"  r="1.2" opacity="0.7"/>
    <circle cx="968"  cy="88"  r="1"   opacity="0.65"/>
    <circle cx="1055" cy="56"  r="1.5" opacity="0.8"/>
    <circle cx="1140" cy="82"  r="1.2" opacity="0.7"/>
    <circle cx="80"   cy="148" r="1"   opacity="0.55"/>
    <circle cx="192"  cy="165" r="1.2" opacity="0.65"/>
    <circle cx="358"  cy="142" r="1.5" opacity="0.6"/>
    <circle cx="490"  cy="172" r="1"   opacity="0.55"/>
    <circle cx="628"  cy="152" r="1.2" opacity="0.65"/>
    <circle cx="762"  cy="175" r="1.5" opacity="0.6"/>
    <circle cx="895"  cy="158" r="1"   opacity="0.55"/>
    <circle cx="1022" cy="145" r="1.2" opacity="0.65"/>
    <circle cx="1165" cy="170" r="1.5" opacity="0.6"/>
    <circle cx="172"  cy="238" r="1"   opacity="0.5"/>
    <circle cx="418"  cy="255" r="1.2" opacity="0.55"/>
    <circle cx="652"  cy="235" r="1"   opacity="0.5"/>
    <circle cx="912"  cy="248" r="1.2" opacity="0.55"/>
    <circle cx="1112" cy="240" r="1"   opacity="0.5"/>
  </g>

  <!-- CRESCENT MOON (upper left) -->
  <circle cx="175" cy="160" r="68" fill="url(#moonHalo)"/>
  <circle cx="175" cy="160" r="40" fill="#ccdcf8" opacity="0.95"/>
  <!-- Cutout to make crescent -->
  <circle cx="196" cy="152" r="32" fill="#0c1c40"/>

  <!-- 12 STARS (Uzbekistan flag pattern — 3 rows: 3, 4, 5) -->
  <!-- Row 1: 3 stars -->
  <g fill="#ccdcf8" opacity="0.9">
    <!-- Row 1 -->
    <polygon points="258,107 260,113 267,113 261,117 264,124 258,120 252,124 255,117 249,113 256,113"/>
    <polygon points="280,107 282,113 289,113 283,117 286,124 280,120 274,124 277,117 271,113 278,113"/>
    <polygon points="302,107 304,113 311,113 305,117 308,124 302,120 296,124 299,117 293,113 300,113"/>
    <!-- Row 2 -->
    <polygon points="247,130 249,136 256,136 250,140 253,147 247,143 241,147 244,140 238,136 245,136"/>
    <polygon points="269,130 271,136 278,136 272,140 275,147 269,143 263,147 266,140 260,136 267,136"/>
    <polygon points="291,130 293,136 300,136 294,140 297,147 291,143 285,147 288,140 282,136 289,136"/>
    <polygon points="313,130 315,136 322,136 316,140 319,147 313,143 307,147 310,140 304,136 311,136"/>
    <!-- Row 3 -->
    <polygon points="235,153 237,159 244,159 238,163 241,170 235,166 229,170 232,163 226,159 233,159"/>
    <polygon points="257,153 259,159 266,159 260,163 263,170 257,166 251,170 254,163 248,159 255,159"/>
    <polygon points="279,153 281,159 288,159 282,163 285,170 279,166 273,170 276,163 270,159 277,159"/>
    <polygon points="301,153 303,159 310,159 304,163 307,170 301,166 295,170 298,163 292,159 299,159"/>
    <polygon points="323,153 325,159 332,159 326,163 329,170 323,166 317,170 320,163 314,159 321,159"/>
  </g>

  <!-- ====== BUILDINGS ====== -->

  <!-- Far background buildings (faint, behind everything) -->
  <rect x="60"   y="475" width="75"  height="105" fill="#07101e" opacity="0.8"/>
  <rect x="145"  y="490" width="60"  height="90"  fill="#060e1a" opacity="0.8"/>
  <rect x="215"  y="480" width="55"  height="100" fill="#070f1c" opacity="0.8"/>
  <rect x="985"  y="425" width="80"  height="155" fill="#06101e" opacity="0.8"/>
  <rect x="1075" y="455" width="65"  height="125" fill="#050e1a" opacity="0.8"/>
  <rect x="1150" y="475" width="55"  height="105" fill="#040c16" opacity="0.8"/>

  <!-- Left far lit windows -->
  <g fill="#ffe090" opacity="0.35">
    <rect x="72"  y="492" width="7" height="9"/>
    <rect x="90"  y="492" width="7" height="9"/>
    <rect x="113" y="492" width="7" height="9"/>
    <rect x="162" y="508" width="6" height="8"/>
    <rect x="237" y="498" width="6" height="8"/>
  </g>

  <!-- Mid-left buildings -->
  <rect x="253" y="465" width="68" height="115" fill="#0a1428"/>
  <rect x="330" y="478" width="14" height="102" fill="#091220"/>
  <g fill="#ffe090" opacity="0.4">
    <rect x="263" y="480" width="7" height="9"/>
    <rect x="280" y="480" width="7" height="9"/>
    <rect x="263" y="500" width="7" height="9"/>
    <rect x="300" y="500" width="7" height="9"/>
  </g>

  <!-- TRADITIONAL DOMED BUILDING (Islamic/Uzbek architecture) -->
  <rect x="348" y="432" width="104" height="148" fill="url(#bldg)"/>
  <!-- Drum -->
  <rect x="368" y="420" width="64" height="22" fill="#172248"/>
  <!-- Main dome -->
  <ellipse cx="400" cy="420" rx="52" ry="28" fill="#142040"/>
  <!-- Portal arch (pishtaq) -->
  <path d="M 375,432 Q 400,400 425,432 L 425,580 L 375,580 Z" fill="#0e1a35"/>
  <path d="M 384,432 Q 400,412 416,432 L 416,480 L 384,480 Z" fill="#080f20"/>
  <!-- Side minarets -->
  <rect x="337" y="390" width="14" height="90"  fill="url(#bldgDk)"/>
  <ellipse cx="344" cy="390" rx="7" ry="10" fill="#10193a"/>
  <polygon points="344,368 340,390 348,390" fill="#10183a"/>
  <rect x="449" y="390" width="14" height="90"  fill="url(#bldgDk)"/>
  <ellipse cx="456" cy="390" rx="7" ry="10" fill="#10193a"/>
  <polygon points="456,368 452,390 460,390" fill="#10183a"/>
  <!-- Minaret windows -->
  <g fill="#ffe090" opacity="0.65">
    <rect x="340" y="405" width="8" height="8" rx="1"/>
    <rect x="452" y="405" width="8" height="8" rx="1"/>
  </g>
  <!-- Dome tile pattern hint -->
  <ellipse cx="400" cy="416" rx="28" ry="14" fill="none" stroke="#1e3060" stroke-width="1.5" opacity="0.5"/>

  <!-- TASHKENT TV TOWER (iconic needle) -->
  <!-- Base -->
  <rect x="487" y="452" width="26" height="38" fill="url(#bldg)"/>
  <!-- Legs spread -->
  <polygon points="490,490 500,430 510,490" fill="#15204a"/>
  <!-- Tower needle -->
  <polygon points="500,248 497,432 503,432" fill="#152040"/>
  <!-- Observation deck disk -->
  <ellipse cx="500" cy="350" rx="20" ry="10" fill="#162248"/>
  <ellipse cx="500" cy="345" rx="15" ry="6"  fill="#1a2a58"/>
  <!-- Deck lights -->
  <g fill="#ffe090" opacity="0.6">
    <rect x="483" y="347" width="7" height="3" rx="1"/>
    <rect x="510" y="347" width="7" height="3" rx="1"/>
  </g>
  <!-- Top antenna -->
  <line x1="500" y1="250" x2="500" y2="228" stroke="#1a2850" stroke-width="2"/>
  <circle cx="500" cy="226" r="4.5" fill="#ff4422" opacity="0.92"/>

  <!-- HOTEL UZBEKISTAN / Government building (Soviet Baroque) -->
  <rect x="552" y="402" width="132" height="178" fill="url(#bldg)"/>
  <!-- Stepped crown -->
  <rect x="567" y="368" width="102" height="44" fill="#1a2850"/>
  <rect x="590" y="338" width="56"  height="40" fill="#182448"/>
  <rect x="604" y="312" width="28"  height="36" fill="#162040"/>
  <!-- Horizontal cornice -->
  <rect x="554" y="398" width="128" height="7" fill="#202e60"/>
  <!-- Lit windows -->
  <g fill="#ffe090" opacity="0.75">
    <rect x="563" y="417" width="9" height="13" rx="1"/>
    <rect x="578" y="417" width="9" height="13" rx="1"/>
    <rect x="596" y="417" width="9" height="13" rx="1"/>
    <rect x="614" y="417" width="9" height="13" rx="1"/>
    <rect x="632" y="417" width="9" height="13" rx="1"/>
    <rect x="650" y="417" width="9" height="13" rx="1"/>
    <rect x="668" y="417" width="9" height="13" rx="1"/>
    <rect x="563" y="447" width="9" height="13" rx="1"/>
    <rect x="596" y="447" width="9" height="13" rx="1"/>
    <rect x="632" y="447" width="9" height="13" rx="1"/>
    <rect x="668" y="447" width="9" height="13" rx="1"/>
    <rect x="578" y="477" width="9" height="13" rx="1"/>
    <rect x="614" y="477" width="9" height="13" rx="1"/>
    <rect x="650" y="477" width="9" height="13" rx="1"/>
  </g>
  <!-- Dark windows -->
  <g fill="#101e3a" opacity="0.7">
    <rect x="578" y="447" width="9" height="13" rx="1"/>
    <rect x="614" y="447" width="9" height="13" rx="1"/>
    <rect x="650" y="447" width="9" height="13" rx="1"/>
    <rect x="563" y="477" width="9" height="13" rx="1"/>
    <rect x="632" y="477" width="9" height="13" rx="1"/>
    <rect x="668" y="477" width="9" height="13" rx="1"/>
  </g>

  <!-- Background mid buildings -->
  <rect x="697" y="432" width="46" height="148" fill="#08111f"/>
  <g fill="#ffe090" opacity="0.35">
    <rect x="707" y="448" width="6" height="8"/>
    <rect x="722" y="458" width="6" height="8"/>
    <rect x="707" y="472" width="6" height="8"/>
  </g>

  <!-- MODERN SKYSCRAPER 1 (tallest, right of center) -->
  <rect x="752" y="282" width="78" height="298" fill="#0e192e"/>
  <!-- Glass highlight -->
  <rect x="752" y="282" width="39" height="298" fill="#122040" opacity="0.35"/>
  <!-- Windows -->
  <g fill="#ffe090" opacity="0.7">
    <rect x="762" y="302" width="8" height="11" rx="1"/>
    <rect x="780" y="302" width="8" height="11" rx="1"/>
    <rect x="802" y="302" width="8" height="11" rx="1"/>
    <rect x="762" y="328" width="8" height="11" rx="1"/>
    <rect x="780" y="328" width="8" height="11" rx="1"/>
    <rect x="762" y="354" width="8" height="11" rx="1"/>
    <rect x="802" y="354" width="8" height="11" rx="1"/>
    <rect x="780" y="380" width="8" height="11" rx="1"/>
    <rect x="802" y="380" width="8" height="11" rx="1"/>
    <rect x="762" y="406" width="8" height="11" rx="1"/>
    <rect x="802" y="422" width="8" height="11" rx="1"/>
  </g>
  <g fill="#162040" opacity="0.8">
    <rect x="802" y="328" width="8" height="11" rx="1"/>
    <rect x="780" y="354" width="8" height="11" rx="1"/>
    <rect x="762" y="380" width="8" height="11" rx="1"/>
    <rect x="780" y="406" width="8" height="11" rx="1"/>
    <rect x="762" y="422" width="8" height="11" rx="1"/>
    <rect x="780" y="422" width="8" height="11" rx="1"/>
  </g>
  <!-- Triangular roof + spire -->
  <polygon points="752,284 791,260 830,284" fill="#0a1322"/>
  <line x1="791" y1="260" x2="791" y2="238" stroke="#0e1828" stroke-width="3"/>
  <circle cx="791" cy="236" r="4" fill="#ff4422" opacity="0.85"/>

  <!-- MODERN SKYSCRAPER 2 -->
  <rect x="843" y="344" width="62" height="236" fill="#0b1522"/>
  <g fill="#ffe090" opacity="0.65">
    <rect x="854" y="364" width="7" height="10" rx="1"/>
    <rect x="870" y="364" width="7" height="10" rx="1"/>
    <rect x="888" y="364" width="7" height="10" rx="1"/>
    <rect x="854" y="390" width="7" height="10" rx="1"/>
    <rect x="888" y="390" width="7" height="10" rx="1"/>
    <rect x="870" y="416" width="7" height="10" rx="1"/>
    <rect x="854" y="442" width="7" height="10" rx="1"/>
    <rect x="888" y="442" width="7" height="10" rx="1"/>
  </g>

  <!-- MODERN TOWER 3 -->
  <rect x="922" y="364" width="52" height="216" fill="#091220"/>
  <g fill="#ffe090" opacity="0.6">
    <rect x="932" y="382" width="6" height="9" rx="1"/>
    <rect x="946" y="382" width="6" height="9" rx="1"/>
    <rect x="960" y="382" width="6" height="9" rx="1"/>
    <rect x="932" y="406" width="6" height="9" rx="1"/>
    <rect x="960" y="406" width="6" height="9" rx="1"/>
    <rect x="946" y="430" width="6" height="9" rx="1"/>
  </g>

  <!-- GROUND -->
  <rect x="0" y="578" width="1200" height="222" fill="url(#ground)"/>
  <!-- Horizon glow strip -->
  <rect x="0" y="573" width="1200" height="7" fill="#1a3888" opacity="0.65"/>
  <!-- City glow reflection -->
  <rect x="0" y="580" width="1200" height="70" fill="url(#cityGlow)"/>

  <!-- Uzbekistan flag color stripes at bottom (subtle) -->
  <rect x="0" y="768" width="1200" height="10" fill="#009AB5" opacity="0.55"/>
  <rect x="0" y="780" width="1200" height="6"  fill="#ffffff"  opacity="0.2"/>
  <rect x="0" y="788" width="1200" height="10" fill="#1DB954"  opacity="0.55"/>

  <!-- City name (very subtle) -->
  <text x="600" y="752" text-anchor="middle"
        font-family="Arial, Helvetica, sans-serif"
        font-size="13" font-weight="300" fill="white" opacity="0.22"
        letter-spacing="12">TOSHKENT  ·  O'ZBEKISTON</text>
</svg>
