<svg width="28" height="28" viewBox="0 0 28 28" fill="none" xmlns="http://www.w3.org/2000/svg">
<path d="M12.8333 19.8333L15.1667 22.1666C15.3965 22.3964 15.6693 22.5787 15.9696 22.7031C16.2698 22.8275 16.5917 22.8915 16.9167 22.8915C17.2417 22.8915 17.5635 22.8275 17.8638 22.7031C18.164 22.5787 18.4369 22.3964 18.6667 22.1666C18.8965 21.9368 19.0788 21.664 19.2032 21.3637C19.3275 21.0635 19.3915 20.7416 19.3915 20.4166C19.3915 20.0916 19.3275 19.7698 19.2032 19.4695C19.0788 19.1693 18.8965 18.8964 18.6667 18.6666" stroke="white" stroke-width="2.33333" stroke-linecap="round" stroke-linejoin="round"/>
<path d="M16.3333 16.3333L19.25 19.25C19.7141 19.7141 20.3436 19.9749 21 19.9749C21.6564 19.9749 22.2859 19.7141 22.75 19.25C23.2141 18.7858 23.4749 18.1564 23.4749 17.5C23.4749 16.8436 23.2141 16.2141 22.75 15.75L18.2233 11.2233C17.5671 10.5679 16.6775 10.1997 15.75 10.1997C14.8225 10.1997 13.9329 10.5679 13.2767 11.2233L12.25 12.25C11.7859 12.7141 11.1564 12.9749 10.5 12.9749C9.84362 12.9749 9.21413 12.7141 8.75 12.25C8.28587 11.7858 8.02512 11.1564 8.02512 10.5C8.02512 9.8436 8.28587 9.21411 8.75 8.74998L12.0283 5.47164C13.0926 4.41015 14.4805 3.73395 15.9724 3.55011C17.4643 3.36627 18.9749 3.68528 20.265 4.45664L20.8133 4.78331C21.3101 5.08313 21.9007 5.18711 22.47 5.07498L24.5 4.66664" stroke="white" stroke-width="2.33333" stroke-linecap="round" stroke-linejoin="round"/>
<path d="M24.5 3.5L25.6667 16.3333H23.3333" stroke="white" stroke-width="2.33333" stroke-linecap="round" stroke-linejoin="round"/>
<path d="M3.5 3.5L2.33334 16.3333L9.91667 23.9167C10.3808 24.3808 11.0103 24.6415 11.6667 24.6415C12.323 24.6415 12.9525 24.3808 13.4167 23.9167C13.8808 23.4525 14.1415 22.823 14.1415 22.1667C14.1415 21.5103 13.8808 20.8808 13.4167 20.4167" stroke="white" stroke-width="2.33333" stroke-linecap="round" stroke-linejoin="round"/>
<path d="M3.5 4.66663H12.8333" stroke="white" stroke-width="2.33333" stroke-linecap="round" stroke-linejoin="round"/>
</svg>
