<svg width="28" height="28" viewBox="0 0 28 28" fill="none" xmlns="http://www.w3.org/2000/svg">
<path d="M14 25.6667C20.4433 25.6667 25.6666 20.4434 25.6666 14C25.6666 7.55672 20.4433 2.33337 14 2.33337C7.55666 2.33337 2.33331 7.55672 2.33331 14C2.33331 20.4434 7.55666 25.6667 14 25.6667Z" stroke="white" stroke-width="2.33333" stroke-linecap="round" stroke-linejoin="round"/>
<path d="M14 21C17.866 21 21 17.866 21 14C21 10.134 17.866 7 14 7C10.134 7 7 10.134 7 14C7 17.866 10.134 21 14 21Z" stroke="white" stroke-width="2.33333" stroke-linecap="round" stroke-linejoin="round"/>
<path d="M14 16.3333C15.2887 16.3333 16.3334 15.2886 16.3334 14C16.3334 12.7113 15.2887 11.6666 14 11.6666C12.7114 11.6666 11.6667 12.7113 11.6667 14C11.6667 15.2886 12.7114 16.3333 14 16.3333Z" stroke="white" stroke-width="2.33333" stroke-linecap="round" stroke-linejoin="round"/>
</svg>
