<svg width="24" height="24" viewBox="0 0 24 24" fill="none" xmlns="http://www.w3.org/2000/svg">
<circle opacity="0.4" cx="12" cy="12" r="6" fill="currentColor"/>
<path fill-rule="evenodd" clip-rule="evenodd" d="M12 1.25C12.4142 1.25 12.75 1.58579 12.75 2V3C12.75 3.41421 12.4142 3.75 12 3.75C11.5858 3.75 11.25 3.41421 11.25 3V2C11.25 1.58579 11.5858 1.25 12 1.25Z" fill="currentColor"/>
<path fill-rule="evenodd" clip-rule="evenodd" d="M12 20.25C12.4142 20.25 12.75 20.5858 12.75 21V22C12.75 22.4142 12.4142 22.75 12 22.75C11.5858 22.75 11.25 22.4142 11.25 22V21C11.25 20.5858 11.5858 20.25 12 20.25Z" fill="currentColor"/>
<path fill-rule="evenodd" clip-rule="evenodd" d="M19.6016 4.39849C19.8945 4.69139 19.8945 5.16626 19.6016 5.45915L18.8945 6.16626C18.6016 6.45915 18.1267 6.45915 17.8339 6.16626C17.541 5.87337 17.541 5.39849 17.8339 5.1056L18.541 4.39849C18.8339 4.1056 19.3087 4.1056 19.6016 4.39849Z" fill="currentColor"/>
<path fill-rule="evenodd" clip-rule="evenodd" d="M6.16607 17.8331C6.45897 18.126 6.45897 18.6008 6.16607 18.8937L5.45897 19.6008C5.16607 19.8937 4.6912 19.8937 4.39831 19.6008C4.10541 19.3079 4.10541 18.8331 4.39831 18.5402L5.10541 17.8331C5.39831 17.5402 5.87318 17.5402 6.16607 17.8331Z" fill="currentColor"/>
<path fill-rule="evenodd" clip-rule="evenodd" d="M22.75 12C22.75 12.4142 22.4142 12.75 22 12.75L21 12.75C20.5858 12.75 20.25 12.4142 20.25 12C20.25 11.5858 20.5858 11.25 21 11.25L22 11.25C22.4142 11.25 22.75 11.5858 22.75 12Z" fill="currentColor"/>
<path fill-rule="evenodd" clip-rule="evenodd" d="M3.75 12C3.75 12.4142 3.41421 12.75 3 12.75L2 12.75C1.58579 12.75 1.25 12.4142 1.25 12C1.25 11.5858 1.58579 11.25 2 11.25L3 11.25C3.41421 11.25 3.75 11.5858 3.75 12Z" fill="currentColor"/>
<path fill-rule="evenodd" clip-rule="evenodd" d="M19.6015 19.6016C19.3086 19.8945 18.8337 19.8945 18.5408 19.6016L17.8337 18.8945C17.5408 18.6016 17.5408 18.1267 17.8337 17.8339C18.1266 17.541 18.6015 17.541 18.8944 17.8339L19.6015 18.541C19.8944 18.8339 19.8944 19.3087 19.6015 19.6016Z" fill="currentColor"/>
<path fill-rule="evenodd" clip-rule="evenodd" d="M6.16596 6.16705C5.87307 6.45994 5.39819 6.45994 5.1053 6.16705L4.39819 5.45994C4.1053 5.16705 4.1053 4.69217 4.39819 4.39928C4.69109 4.10639 5.16596 4.10639 5.45885 4.39928L6.16596 5.10639C6.45885 5.39928 6.45885 5.87416 6.16596 6.16705Z" fill="currentColor"/>
</svg>
