<svg width="21" height="20" viewBox="0 0 21 20" fill="none" xmlns="http://www.w3.org/2000/svg">
<path d="M10.7797 1.60938C11.1814 1.60938 11.5668 1.76881 11.851 2.05273L18.101 8.30273V8.30371C18.2422 8.44411 18.3548 8.61091 18.431 8.79492C18.5071 8.9788 18.5459 9.176 18.5453 9.375V16.875C18.5453 17.1111 18.4514 17.3379 18.2845 17.5049C18.1175 17.6719 17.8909 17.7656 17.6547 17.7656H3.90466C3.66846 17.7656 3.4418 17.6719 3.27478 17.5049C3.1079 17.3379 3.01404 17.1111 3.01404 16.875V9.375C3.01344 9.176 3.05218 8.97879 3.1283 8.79492C3.2045 8.61092 3.31713 8.44411 3.45837 8.30371V8.30273L9.70837 2.05273C9.99256 1.7688 10.3779 1.60938 10.7797 1.60938ZM16.764 9.48535L10.7797 3.50098L4.79529 9.48535V15.9844H16.764V9.48535Z" fill="#475569" stroke="#475569" stroke-width="0.09375"/>
</svg>
